<?xml version="1.0" encoding="UTF-8"?>
<svg version="1.1" xmlns="http://www.w3.org/2000/svg" width="300" height="300">
<path d="M0 0 C1.29839813 -0.00960754 2.59679626 -0.01921509 3.93453979 -0.02911377 C5.34454166 -0.03396196 6.75454557 -0.03824074 8.16455078 -0.04199219 C8.87937748 -0.04481956 9.59420418 -0.04764694 10.33069229 -0.05056 C14.11239233 -0.06551476 17.89405458 -0.07476805 21.67578125 -0.07910156 C25.56834408 -0.08458548 29.46055701 -0.10862213 33.35301018 -0.13707352 C36.35915113 -0.15575705 39.36520865 -0.16090849 42.37140274 -0.16243744 C43.80583741 -0.16545084 45.24027107 -0.17343472 46.67464828 -0.18662262 C60.73041811 -0.3066476 60.73041811 -0.3066476 66.48486328 3.16113281 C71.53857983 8.48083444 71.83928846 13.05867426 71.76220703 20.14160156 C71.35167953 24.61114747 70.31111545 26.66550513 67.48486328 30.16113281 C61.07140928 34.25482685 56.10791234 34.16113281 48.48486328 34.16113281 C48.81486328 80.69113281 49.14486328 127.22113281 49.48486328 175.16113281 C54.43486328 176.15113281 59.38486328 177.14113281 64.48486328 178.16113281 C70.00558647 183.681856 71.76850659 185.47568073 71.79736328 193.03613281 C71.67540435 199.30177312 70.68167277 203.0221341 66.10986328 207.47363281 C61.65585451 210.33692416 57.27575813 210.29055958 52.07739258 210.32226562 C50.80224289 210.33187317 49.5270932 210.34148071 48.21330261 210.35137939 C46.82856425 210.35622814 45.4438238 210.36050678 44.05908203 210.36425781 C43.35653605 210.36708519 42.65399006 210.36991257 41.9301548 210.37282562 C38.21214043 210.3877815 34.4941645 210.39703362 30.77612305 210.40136719 C26.95315781 210.40684596 23.13054977 210.43087143 19.30769634 210.45933914 C16.35212708 210.47804544 13.3966425 210.48317535 10.44101906 210.48470306 C9.03253032 210.48771221 7.62404245 210.49568142 6.21561241 210.50888824 C-7.78513923 210.6308023 -7.78513923 210.6308023 -14.51513672 207.16113281 C-19.09996683 201.63582473 -19.98616124 197.22650067 -19.51513672 190.16113281 C-18.51923452 185.96579679 -17.24905419 182.93582348 -14.26513672 179.78613281 C-8.18915254 176.19577853 -3.67248432 176.16113281 3.48486328 176.16113281 C3.81486328 128.97113281 4.14486328 81.78113281 4.48486328 33.16113281 C0.85486328 33.16113281 -2.77513672 33.16113281 -6.51513672 33.16113281 C-11.69136491 31.84884961 -13.57170351 31.29809078 -16.95263672 27.22363281 C-19.6685001 21.90054058 -20.43438963 17.03357618 -19.01904297 11.07128906 C-17.49536795 6.44861402 -15.82727426 3.72788135 -11.51513672 1.16113281 C-7.65219766 0.15539906 -3.98126167 0.0238401 0 0 Z " fill="#D2E1E6" transform="translate(123.51513671875,49.8388671875)"/>
<path d="M0 0 C21.12 0 42.24 0 64 0 C64 1.98 64 3.96 64 6 C62.97519531 6.10957031 61.95039063 6.21914062 60.89453125 6.33203125 C59.53378133 6.49156745 58.17310806 6.6517584 56.8125 6.8125 C56.13896484 6.88275391 55.46542969 6.95300781 54.77148438 7.02539062 C50.49469386 7.54695044 47.27183534 8.13496479 44 11 C40.48478802 18.12611625 40.57416085 24.75935209 40.61181641 32.60107422 C40.60774501 33.96532612 40.60239995 35.32957471 40.59588623 36.69381714 C40.58227165 40.37993078 40.58748753 44.06579101 40.59702349 47.75190878 C40.60465371 51.62295271 40.59756489 55.4939759 40.59286499 59.36502075 C40.58741588 65.86627062 40.59457543 72.36741805 40.60888672 78.86865234 C40.6251979 86.36452328 40.61993254 93.86014918 40.6034075 101.35601413 C40.58975203 107.81065195 40.58789315 114.2652164 40.59572351 120.71986401 C40.60037956 124.56654757 40.60108255 128.41311633 40.59111404 132.25979233 C40.58238776 135.87966634 40.58856835 139.49922759 40.60579681 143.11906815 C40.6115958 145.06606884 40.60279366 147.01309627 40.59341431 148.96008301 C40.65010719 156.86921243 40.76296867 165.29725013 46.19921875 171.515625 C49.64278917 173.3406693 53.00573307 174.13071734 56.8125 174.75 C57.50537109 174.87503906 58.19824219 175.00007812 58.91210938 175.12890625 C60.60573839 175.43259145 62.30259781 175.71816718 64 176 C64 177.98 64 179.96 64 182 C42.88 182 21.76 182 0 182 C0 180.02 0 178.04 0 176 C0.70125 175.90203125 1.4025 175.8040625 2.125 175.703125 C11.2250649 174.45346321 11.2250649 174.45346321 19 170 C23.11955465 161.78919077 23.57001835 153.41781004 23.48583984 144.40380859 C23.48963654 143.10138718 23.49343323 141.79896576 23.49734497 140.45707703 C23.50694122 136.92191284 23.49185963 133.38726297 23.47143888 129.85216093 C23.45371108 126.13196739 23.45739596 122.41178603 23.4581604 118.69155884 C23.45629462 112.44955983 23.43902738 106.20775674 23.41162109 99.96582031 C23.38015048 92.77209537 23.36962633 85.57858437 23.3710922 78.38479555 C23.37244794 70.68939468 23.35854305 62.99407509 23.34019899 55.2986989 C23.33595775 53.09645174 23.33451959 50.89421788 23.33372116 48.69196701 C23.33132035 44.57367827 23.3118244 40.4556367 23.29052734 36.33740234 C23.29143372 35.12985794 23.29234009 33.92231354 23.29327393 32.67817688 C23.33191856 20.77956737 23.33191856 20.77956737 19 10 C14.848591 7.232394 10.88081655 6.66945809 6 6 C4.205625 5.690625 4.205625 5.690625 2.375 5.375 C1.199375 5.189375 1.199375 5.189375 0 5 C0 3.35 0 1.7 0 0 Z " fill="#FEFEFE" transform="translate(118,64)"/>
</svg>
